<?xml version="1.0" standalone="no"?>
<svg xmlns:xlink="http://www.w3.org/1999/xlink" id="wave" style="transform:rotate(0deg); transition: 0.3s" viewBox="0 0 1440 200" version="1.1" xmlns="http://www.w3.org/2000/svg"><defs><linearGradient id="sw-gradient-0" x1="0" x2="0" y1="1" y2="0"><stop stop-color="rgba(243, 106, 62, 0.49)" offset="0%"/><stop stop-color="rgba(255, 179, 11, 0.56)" offset="100%"/></linearGradient></defs><path style="transform:translate(0, 0px); opacity:1" fill="url(#sw-gradient-0)" d="M0,0L60,0C120,0,240,0,360,16.7C480,33,600,67,720,90C840,113,960,127,1080,126.7C1200,127,1320,113,1440,120C1560,127,1680,153,1800,146.7C1920,140,2040,100,2160,93.3C2280,87,2400,113,2520,116.7C2640,120,2760,100,2880,96.7C3000,93,3120,107,3240,113.3C3360,120,3480,120,3600,130C3720,140,3840,160,3960,140C4080,120,4200,60,4320,33.3C4440,7,4560,13,4680,13.3C4800,13,4920,7,5040,20C5160,33,5280,67,5400,96.7C5520,127,5640,153,5760,153.3C5880,153,6000,127,6120,110C6240,93,6360,87,6480,86.7C6600,87,6720,93,6840,103.3C6960,113,7080,127,7200,136.7C7320,147,7440,153,7560,146.7C7680,140,7800,120,7920,106.7C8040,93,8160,87,8280,76.7C8400,67,8520,53,8580,46.7L8640,40L8640,200L8580,200C8520,200,8400,200,8280,200C8160,200,8040,200,7920,200C7800,200,7680,200,7560,200C7440,200,7320,200,7200,200C7080,200,6960,200,6840,200C6720,200,6600,200,6480,200C6360,200,6240,200,6120,200C6000,200,5880,200,5760,200C5640,200,5520,200,5400,200C5280,200,5160,200,5040,200C4920,200,4800,200,4680,200C4560,200,4440,200,4320,200C4200,200,4080,200,3960,200C3840,200,3720,200,3600,200C3480,200,3360,200,3240,200C3120,200,3000,200,2880,200C2760,200,2640,200,2520,200C2400,200,2280,200,2160,200C2040,200,1920,200,1800,200C1680,200,1560,200,1440,200C1320,200,1200,200,1080,200C960,200,840,200,720,200C600,200,480,200,360,200C240,200,120,200,60,200L0,200Z"/></svg>